<?xml version="1.0" encoding="UTF-8"?>
<svg width="14px" height="14px" viewBox="0 0 14 14" version="1.1" xmlns="http://www.w3.org/2000/svg" xmlns:xlink="http://www.w3.org/1999/xlink">
    <!-- Generator: Sketch 42 (36781) - http://www.bohemiancoding.com/sketch -->
    <title>Shape@2x</title>
    <desc>Created with Sketch.</desc>
    <defs></defs>
    <g id="Page-1" stroke="none" stroke-width="1" fill="none" fill-rule="evenodd">
        <g id="注册好规划" transform="translate(-31.000000, -184.000000)" fill-rule="nonzero" fill="#ED495F">
            <g id="Group-2" transform="translate(187.000000, 207.500000) rotate(-360.000000) translate(-187.000000, -207.500000) translate(0.000000, 174.000000)">
                <g id="注册帮助" transform="translate(31.000000, 10.000000)">
                    <path d="M1.6162022,14 C0.725032252,14 1.61530097e-08,13.2666669 2.66453526e-15,12.3652684 L2.66453526e-15,1.72278836 C2.66453526e-15,1.28666731 0.17560911,0.848995387 0.481784525,0.521990296 C0.794670901,0.187834878 1.20170915,0.00380372392 1.6279216,0.00380372392 L8.55033224,0.00380372392 L8.55033224,0.618209558 L1.6279216,0.618209558 C1.08152336,0.618209558 0.6022348,1.13429022 0.602234784,1.72262511 L0.602234784,12.3652684 C0.602234784,12.9306341 1.0570928,13.3905896 1.6162022,13.3905896 L12.1366822,13.3905896 C12.722652,13.3905896 13.2366359,12.9065385 13.2366359,12.3547062 L13.2366359,5.35660806 L13.8448048,5.35660806 L13.8448048,12.3547062 C13.8448048,12.7849666 13.6613772,13.1963227 13.3283084,13.5129614 C13.0027439,13.8224825 12.5683989,14 12.1366822,14 L1.6162022,14 Z M4.13927734,7.11754782 L11.1212437,0.218982896 C11.2641575,0.0777720683 11.4542299,1.59531433e-08 11.6563688,0 C11.8585408,0 12.0487289,0.0778047085 12.1918741,0.219048192 L13.7780918,1.78665157 C13.921204,1.92792769 14,2.11576257 14,2.31557996 C14,2.51539736 13.921204,2.70323224 13.7781579,2.84445937 L6.79638996,9.74286104 C6.30579523,10.2273856 3.6206982,11.1611727 2.66555919,11.4830681 C2.52461238,11.5305737 2.38890542,11.3997129 2.43360111,11.2594163 C2.73683427,10.3074758 3.62235115,7.62807798 4.13927734,7.11754782 L4.13927734,7.11754782 Z M3.5212569,10.5250874 L5.52385202,9.71852055 L4.16405501,8.37463429 L3.36492115,10.3723675 C3.32624218,10.4690438 3.42378259,10.5643326 3.5212569,10.5250874 L3.5212569,10.5250874 Z M6.26133096,9.40999531 L11.5383153,4.1963775 L9.74014018,2.44487357 L4.47590004,7.64575791 C4.47590004,7.64575791 4.79954709,7.96613506 4.89242621,8.05801188 L5.84442462,8.99867186 C5.85781349,9.01189506 5.86890476,9.0228491 5.8785249,9.0320074 C5.92588184,9.07871308 6.26133094,9.40999531 6.26133096,9.40999531 L6.26133096,9.40999531 Z M11.6563523,0.792674298 C11.4988429,0.792674298 11.3507554,0.853337817 11.2393798,0.963514915 L10.2122549,1.97822485 L11.9717511,3.76781489 L13.0247116,2.72740948 C13.1362524,2.61741197 13.1977586,2.47107511 13.1977586,2.31543303 C13.1977586,2.16000319 13.1364177,2.01391121 13.0250587,1.90409326 L12.0730603,0.963465939 C11.9619492,0.853370473 11.8139112,0.792674314 11.6563523,0.792674298 L11.6563523,0.792674298 Z" id="Shape"></path>
                </g>
            </g>
        </g>
    </g>
</svg>